<svg id="enRN1F2J9Qz1" xmlns="http://www.w3.org/2000/svg" xmlns:xlink="http://www.w3.org/1999/xlink" viewBox="0 0 512 512" shape-rendering="geometricPrecision" text-rendering="geometricPrecision"><defs><linearGradient id="enRN1F2J9Qz4-fill" x1="0" y1="0.5" x2="1" y2="0.5" spreadMethod="pad" gradientUnits="objectBoundingBox" gradientTransform="translate(0 0)"><stop id="enRN1F2J9Qz4-fill-0" offset="0%" stop-color="#742ea6"/><stop id="enRN1F2J9Qz4-fill-1" offset="100%" stop-color="#2909b1"/></linearGradient></defs><g transform="matrix(1.035987 0 0 1.341241-83.628617-295.556053)"><g><ellipse rx="240" ry="240" transform="matrix(.804985 0 0 0.656285 327.830965 411.228149)" fill="url(#enRN1F2J9Qz4-fill)" stroke="#004ec3" stroke-width="3"/><g transform="matrix(.880041 0 0 0.754159 50.111579 102.324618)"><path d="M375.309,443.725h-213.334c-4.719,0-8.533,3.823-8.533,8.533c0,4.719,3.814,8.533,8.533,8.533h213.333c9.412,0,17.067,7.654,17.067,17.075c0,9.412-7.654,17.067-17.067,17.067-4.565,0-8.858-1.783-12.083-5.009-3.337-3.337-8.73-3.337-12.066-.009-3.337,3.337-3.337,8.738,0,12.075c6.451,6.451,15.027,10.01,24.149,10.01c18.825,0,34.133-15.317,34.133-34.133.001-18.825-15.308-34.142-34.132-34.142Z" fill="#fff"/><path d="M409.442,366.925c0-32.93-26.803-59.725-59.733-59.725s-59.733,26.795-59.733,59.725c0,4.719,3.814,8.533,8.533,8.533s8.533-3.814,8.533-8.533c0-23.518,19.14-42.658,42.667-42.658c23.526,0,42.667,19.14,42.667,42.658c0,23.526-19.14,42.667-42.667,42.667h-221.867c-4.719,0-8.533,3.823-8.533,8.533c0,4.719,3.814,8.533,8.533,8.533h221.867c32.93,0,59.733-26.795,59.733-59.733Z" fill="#fff"/><path d="M460.642,409.591h-42.667c-4.719,0-8.533,3.823-8.533,8.533c0,4.719,3.814,8.533,8.533,8.533h42.667c18.825,0,34.133,15.317,34.133,34.133c0,18.825-15.309,34.142-34.133,34.142-9.242,0-17.894-3.635-24.363-10.24-3.319-3.371-8.721-3.413-12.066-.111-3.371,3.294-3.422,8.704-.119,12.066c9.711,9.899,22.69,15.351,36.548,15.351c28.237,0,51.2-22.972,51.2-51.208c0-28.227-22.963-51.199-51.2-51.199Z" fill="#fff"/></g></g></g></svg>
